Coordinates
version=1
nRows=17
nColumns=23
inDegrees=yes

Units are S.I. units (second, meters, Newtons, ...)
If the header above contains a line with 'inDegrees', this indicates whether rotational values are in degrees (yes) or radians (no).

endheader
time	pelvis_tilt	pelvis_list	pelvis_rotation	pelvis_tx	pelvis_ty	pelvis_tz	hip_flexion_r	hip_adduction_r	hip_rotation_r	knee_angle_r	knee_angle_r_beta	ankle_angle_r	subtalar_angle_r	mtp_angle_r	hip_flexion_l	hip_adduction_l	hip_rotation_l	knee_angle_l	knee_angle_l_beta	ankle_angle_l	subtalar_angle_l	mtp_angle_l
      7.50000000	     -2.58512708	      3.21148117	      4.04362226	      2.27679020	      1.07182373	      1.01914334	    -13.88648852	     -1.34350231	    -14.44470919	     40.07279603	      0.69940223	    -21.22991228	    -11.42295423	      0.00000000	     24.47059983	      5.95507109	     -1.29733326	     20.15241190	      0.35172594	      3.27968466	     10.53263295	      0.00000000
      7.50666667	     -2.11919823	      3.30526871	      4.27035211	      2.27723129	      1.06882548	      1.01876163	    -13.67679512	     -1.18001367	    -13.37588708	     42.79091920	      0.74684243	    -21.54482767	    -13.07547432	      0.00000000	     24.21894300	      6.02173156	     -2.31856509	     21.13620930	      0.36889644	      3.27706539	     10.76269944	      0.00000000
      7.51333333	     -1.50522213	      3.56878983	      4.51626267	      2.27765799	      1.06555621	      1.01845601	    -13.57514302	     -1.20970327	    -12.53230051	     45.63983293	      0.79656535	    -21.52120454	    -14.10225552	      0.00000000	     23.72751803	      6.28271212	     -3.07566146	     22.24241235	      0.38820333	      3.26531193	     10.31429830	      0.00000000
      7.52000000	     -0.74005402	      3.82920610	      4.84203952	      2.27790179	      1.06193696	      1.01808998	    -13.59969964	     -1.17096267	    -11.77983478	     48.51032273	      0.84666485	    -21.39882692	    -15.02032586	      0.00000000	     23.17798041	      6.54750773	     -3.64456160	     23.80831197	      0.41553343	      3.50689264	      9.60870396	      0.00000000
      7.52666667	      0.09961053	      4.08036432	      5.21281779	      2.27805593	      1.05795681	      1.01776902	    -13.66415463	     -1.09279146	    -11.15629789	     51.40180616	      0.89713076	    -21.21741266	    -15.80051290	      0.00000000	     22.57782713	      6.79757580	     -4.02843145	     25.66772905	      0.44798638	      3.90576655	      8.81164190	      0.00000000
      7.53333333	      0.53916503	      4.11375095	      5.57266362	      2.27794088	      1.05295335	      1.01756463	    -13.13481612	     -0.76301017	    -10.38720035	     54.45216202	      0.95036951	    -20.90945500	    -16.48412758	      0.00000000	     22.61789566	      6.78396196	     -4.40180990	     28.11769247	      0.49074631	      4.89327420	      8.26755397	      0.00000000
      7.54000000	      1.45020110	      4.36993788	      5.98542920	      2.27778341	      1.04819394	      1.01726910	    -13.17194603	     -0.69304064	    -10.00777929	     57.40978763	      1.00198982	    -20.52938762	    -16.93242793	      0.00000000	     21.99917928	      7.05323778	     -4.40674225	     30.48168096	      0.53200569	      6.06540374	      7.33023523	      0.00000000
      7.54666667	      2.32953703	      4.69117427	      6.42978035	      2.27770603	      1.04300337	      1.01693547	    -13.18609174	     -0.70194265	     -9.75494186	     60.31900461	      1.05276523	    -20.08853150	    -17.28170230	      0.00000000	     21.40554416	      7.41692704	     -4.25010193	     33.01373392	      0.57619836	      7.42256573	      6.37579617	      0.00000000
      7.55333333	      2.86625638	      4.79283632	      6.94929714	      2.27727203	      1.03720220	      1.01652243	    -12.69131132	     -0.58486362	     -9.67970675	     63.33080318	      1.10533103	    -19.47623558	    -17.22472080	      0.00000000	     21.22605964	      7.61073268	     -3.91036675	     35.66896008	      0.62254079	      9.11693431	      5.66275598	      0.00000000
      7.56000000	      3.70901996	      5.09399762	      7.38852841	      2.27683303	      1.03170432	      1.01619913	    -12.56773510	     -0.69000228	     -9.67802983	     66.20346842	      1.15546850	    -18.98680431	    -17.40872291	      0.00000000	     20.54396549	      7.98680575	     -3.51331671	     38.10406176	      0.66504134	     10.94346580	      4.88130096	      0.00000000
      7.56666667	      4.37228574	      5.34790109	      7.86776534	      2.27627321	      1.02598135	      1.01580636	    -12.20682804	     -0.83217206	     -9.80586592	     69.04212826	      1.20501246	    -18.43611956	    -17.43636930	      0.00000000	     20.00563020	      8.32416921	     -3.05730156	     40.48338102	      0.70656829	     12.79668669	      4.27697176	      0.00000000
      7.57333333	      4.74910377	      5.52678913	      8.36572637	      2.27552928	      1.01994691	      1.01542005	    -11.45109506	     -1.02462299	    -10.03252796	     71.90410708	      1.25496341	    -17.71501734	    -17.27613156	      0.00000000	     19.74441001	      8.57575743	     -2.63145106	     42.80863791	      0.74715168	     14.75218928	      3.93341613	      0.00000000
      7.58000000	      5.22988655	      5.77442310	      8.78566294	      2.27470909	      1.01435910	      1.01503402	    -10.79727881	     -1.34043735	    -10.24356678	     74.62588532	      1.30246741	    -17.18057381	    -17.39023248	      0.00000000	     19.18282544	      8.89775749	     -2.11883173	     44.80826237	      0.78205171	     16.66162915	      3.62168718	      0.00000000
      7.58666667	      5.67074158	      6.02371571	      9.09858039	      2.27383477	      1.00912019	      1.01477454	    -10.05912962	     -1.72832543	    -10.38250785	     77.22998456	      1.34791751	    -16.63303993	    -17.63134399	      0.00000000	     18.52363134	      9.17469751	     -1.65135617	     46.54331329	      0.81233406	     18.43443137	      3.35839881	      0.00000000
      7.59333333	      5.49738050	      6.08227426	      9.49600031	      2.27274936	      1.00342650	      1.01425203	     -8.52383126	     -2.14294026	    -10.61523243	     79.88751581	      1.39430018	    -15.90920476	    -17.42779983	      0.00000000	     18.54137961	      9.33384215	     -1.17699245	     48.25883013	      0.84227548	     20.18519729	      3.52642320	      0.00000000
      7.60000000	      5.54841129	      6.20796037	      9.70923192	      2.27170526	      0.99859252	      1.01393190	     -7.20901610	     -2.60021827	    -10.63294302	     82.32686610	      1.43687488	    -15.29275193	    -17.58359653	      0.00000000	     18.12410366	      9.46104846	     -0.80312052	     49.63110850	      0.86622625	     21.79466083	      3.61894749	      0.00000000
      7.60666667	      5.28290211	      6.18415544	      9.85066599	      2.27058203	      0.99379862	      1.01364933	     -5.43080701	     -3.02848268	    -10.55890105	     84.71177793	      1.47849944	    -14.55468705	    -17.58982358	      0.00000000	     18.01225954	      9.40136536	     -0.58705557	     50.89455984	      0.88827764	     23.31415718	      4.03379047	      0.00000000
